<svg xmlns="http://www.w3.org/2000/svg" viewBox="0 0 300 150">
  <g opacity="0.95">
    <g transform="translate(10,12)">
      <rect x="0" y="0" width="36" height="48" rx="6" fill="#122a33" stroke="#00F0FF" stroke-opacity="0.6" stroke-width="1.2"/>
      <rect x="5" y="8" width="26" height="3" rx="1.5" fill="#00E6FF" fill-opacity="0.7"/>
      <rect x="5" y="16" width="26" height="2" rx="1" fill="#00E6FF" fill-opacity="0.7"/>
      <rect x="5" y="23" width="18" height="2" rx="1" fill="#00E6FF" fill-opacity="0.7"/>
      <rect x="5" y="30" width="22" height="2" rx="1" fill="#00E6FF" fill-opacity="0.7"/>
      <rect x="5" y="37" width="26" height="2" rx="1" fill="#00E6FF" fill-opacity="0.7"/>
    </g>
    <g transform="translate(60,12)">
      <rect x="0" y="0" width="36" height="48" rx="6" fill="#122a33" stroke="#00F0FF" stroke-opacity="0.6" stroke-width="1.2"/>
      <rect x="5" y="8" width="26" height="3" rx="1.5" fill="#00E6FF" fill-opacity="0.7"/>
      <rect x="5" y="16" width="22" height="2" rx="1" fill="#00E6FF" fill-opacity="0.7"/>
      <rect x="5" y="23" width="26" height="2" rx="1" fill="#00E6FF" fill-opacity="0.7"/>
      <rect x="5" y="30" width="18" height="2" rx="1" fill="#00E6FF" fill-opacity="0.7"/>
      <rect x="5" y="37" width="24" height="2" rx="1" fill="#00E6FF" fill-opacity="0.7"/>
    </g>
    <g transform="translate(110,12)">
      <rect x="0" y="0" width="36" height="48" rx="6" fill="#122a33" stroke="#00F0FF" stroke-opacity="0.6" stroke-width="1.2"/>
      <rect x="5" y="8" width="26" height="3" rx="1.5" fill="#00E6FF" fill-opacity="0.7"/>
      <rect x="5" y="16" width="18" height="2" rx="1" fill="#00E6FF" fill-opacity="0.7"/>
      <rect x="5" y="23" width="26" height="2" rx="1" fill="#00E6FF" fill-opacity="0.7"/>
      <rect x="5" y="30" width="22" height="2" rx="1" fill="#00E6FF" fill-opacity="0.7"/>
      <rect x="5" y="37" width="26" height="2" rx="1" fill="#00E6FF" fill-opacity="0.7"/>
    </g>
    <g transform="translate(160,12)">
      <rect x="0" y="0" width="36" height="48" rx="6" fill="#122a33" stroke="#00F0FF" stroke-opacity="0.6" stroke-width="1.2"/>
      <rect x="5" y="8" width="26" height="3" rx="1.5" fill="#00E6FF" fill-opacity="0.7"/>
      <rect x="5" y="16" width="22" height="2" rx="1" fill="#00E6FF" fill-opacity="0.7"/>
      <rect x="5" y="23" width="18" height="2" rx="1" fill="#00E6FF" fill-opacity="0.7"/>
      <rect x="5" y="30" width="26" height="2" rx="1" fill="#00E6FF" fill-opacity="0.7"/>
      <rect x="5" y="37" width="24" height="2" rx="1" fill="#00E6FF" fill-opacity="0.7"/>
    </g>
    <g transform="translate(210,12)">
      <rect x="0" y="0" width="36" height="48" rx="6" fill="#122a33" stroke="#00F0FF" stroke-opacity="0.6" stroke-width="1.2"/>
      <rect x="5" y="8" width="26" height="3" rx="1.5" fill="#00E6FF" fill-opacity="0.7"/>
      <rect x="5" y="16" width="22" height="2" rx="1" fill="#00E6FF" fill-opacity="0.7"/>
      <rect x="5" y="23" width="26" height="2" rx="1" fill="#00E6FF" fill-opacity="0.7"/>
      <rect x="5" y="30" width="20" height="2" rx="1" fill="#00E6FF" fill-opacity="0.7"/>
      <rect x="5" y="37" width="26" height="2" rx="1" fill="#00E6FF" fill-opacity="0.7"/>
    </g>
  </g>

  <g opacity="0.95">
    <g transform="translate(20,86)">
      <rect x="0" y="0" width="36" height="48" rx="6" fill="#122a33" stroke="#00F0FF" stroke-opacity="0.6" stroke-width="1.2"/>
      <rect x="5" y="8" width="26" height="3" rx="1.5" fill="#00E6FF" fill-opacity="0.7"/>
      <rect x="5" y="16" width="26" height="2" rx="1" fill="#00E6FF" fill-opacity="0.7"/>
      <rect x="5" y="23" width="22" height="2" rx="1" fill="#00E6FF" fill-opacity="0.7"/>
      <rect x="5" y="30" width="18" height="2" rx="1" fill="#00E6FF" fill-opacity="0.7"/>
      <rect x="5" y="37" width="26" height="2" rx="1" fill="#00E6FF" fill-opacity="0.7"/>
    </g>
    <g transform="translate(70,86)">
      <rect x="0" y="0" width="36" height="48" rx="6" fill="#122a33" stroke="#00F0FF" stroke-opacity="0.6" stroke-width="1.2"/>
      <rect x="5" y="8" width="26" height="3" rx="1.5" fill="#00E6FF" fill-opacity="0.7"/>
      <rect x="5" y="16" width="18" height="2" rx="1" fill="#00E6FF" fill-opacity="0.7"/>
      <rect x="5" y="23" width="26" height="2" rx="1" fill="#00E6FF" fill-opacity="0.7"/>
      <rect x="5" y="30" width="22" height="2" rx="1" fill="#00E6FF" fill-opacity="0.7"/>
      <rect x="5" y="37" width="26" height="2" rx="1" fill="#00E6FF" fill-opacity="0.7"/>
    </g>
    <g transform="translate(120,86)">
      <rect x="0" y="0" width="36" height="48" rx="6" fill="#122a33" stroke="#00F0FF" stroke-opacity="0.6" stroke-width="1.2"/>
      <rect x="5" y="8" width="26" height="3" rx="1.5" fill="#00E6FF" fill-opacity="0.7"/>
      <rect x="5" y="16" width="22" height="2" rx="1" fill="#00E6FF" fill-opacity="0.7"/>
      <rect x="5" y="23" width="18" height="2" rx="1" fill="#00E6FF" fill-opacity="0.7"/>
      <rect x="5" y="30" width="26" height="2" rx="1" fill="#00E6FF" fill-opacity="0.7"/>
      <rect x="5" y="37" width="24" height="2" rx="1" fill="#00E6FF" fill-opacity="0.7"/>
    </g>
    <g transform="translate(170,86)">
      <rect x="0" y="0" width="36" height="48" rx="6" fill="#122a33" stroke="#00F0FF" stroke-opacity="0.6" stroke-width="1.2"/>
      <rect x="5" y="8" width="26" height="3" rx="1.5" fill="#00E6FF" fill-opacity="0.7"/>
      <rect x="5" y="16" width="22" height="2" rx="1" fill="#00E6FF" fill-opacity="0.7"/>
      <rect x="5" y="23" width="26" height="2" rx="1" fill="#00E6FF" fill-opacity="0.7"/>
      <rect x="5" y="30" width="20" height="2" rx="1" fill="#00E6FF" fill-opacity="0.7"/>
      <rect x="5" y="37" width="26" height="2" rx="1" fill="#00E6FF" fill-opacity="0.7"/>
    </g>
    <g transform="translate(220,86)">
      <rect x="0" y="0" width="36" height="48" rx="6" fill="#122a33" stroke="#00F0FF" stroke-opacity="0.6" stroke-width="1.2"/>
      <rect x="5" y="8" width="26" height="3" rx="1.5" fill="#00E6FF" fill-opacity="0.7"/>
      <rect x="5" y="16" width="26" height="2" rx="1" fill="#00E6FF" fill-opacity="0.7"/>
      <rect x="5" y="23" width="22" height="2" rx="1" fill="#00E6FF" fill-opacity="0.7"/>
      <rect x="5" y="30" width="18" height="2" rx="1" fill="#00E6FF" fill-opacity="0.7"/>
      <rect x="5" y="37" width="26" height="2" rx="1" fill="#00E6FF" fill-opacity="0.7"/>
    </g>
  </g>
</svg>
